<svg xmlns="http://www.w3.org/2000/svg" viewBox="0 0 128 128" width="128" height="128" role="img" aria-label="Plume">
  <defs>
    <linearGradient id="f" x1="0" y1="0" x2="1" y2="1"><stop offset="0" stop-color="#5eead4"/><stop offset="1" stop-color="#818cf8"/></linearGradient>
    <mask id="cut" maskUnits="userSpaceOnUse" x="-64" y="-70" width="128" height="150">
      <rect x="-64" y="-70" width="128" height="150" fill="#fff"/>
      <path d="M-1 -50 C2 -20 1 10 -3 38" stroke="#000" stroke-width="3" stroke-linecap="round" fill="none"/>
    </mask>
  </defs>
  <rect width="128" height="128" rx="28" fill="#111827"/>
  <!-- An original quill: an asymmetric vane with stepped barbs, a split shaft and a bare tip. -->
  <g transform="translate(66 60) rotate(38) scale(.98)">
    <g mask="url(#cut)"><path fill="url(#f)" d="M0 -60 C-18 -42 -28 -8 -15 26 C-11 34 -7 38 -4 41 C6 36 10 30 10 21 L23 23 C25 12 19 8 15 0 L29 -2 C28 -14 20 -18 14 -24 L27 -30 C22 -44 12 -54 0 -60 Z"/></g>
    <path d="M-4 38 L-8 68" stroke="#a5b4fc" stroke-width="4.5" stroke-linecap="round"/>
  </g>
</svg>
